<?xml version="1.0" encoding="UTF-8" standalone="no"?>
<!-- Created with Inkscape (http://www.inkscape.org/) -->

<svg
   xmlns:dc="http://purl.org/dc/elements/1.1/"
   xmlns:cc="http://creativecommons.org/ns#"
   xmlns:rdf="http://www.w3.org/1999/02/22-rdf-syntax-ns#"
   xmlns:svg="http://www.w3.org/2000/svg"
   xmlns="http://www.w3.org/2000/svg"
   xmlns:xlink="http://www.w3.org/1999/xlink"
   xmlns:sodipodi="http://sodipodi.sourceforge.net/DTD/sodipodi-0.dtd"
   xmlns:inkscape="http://www.inkscape.org/namespaces/inkscape"
   width="11.870752mm"
   height="7.6506mm"
   viewBox="0 0 11.870752 7.6506"
   version="1.1"
   id="svg8"
   inkscape:version="0.92.5 (2060ec1f9f, 2020-04-08)"
   sodipodi:docname="nodot-50.svg">
  <defs
     id="defs2">
    <linearGradient
       gradientUnits="userSpaceOnUse"
       y2="21.6471"
       x2="3.9647601"
       y1="0"
       x1="3.9647601"
       id="paint0_linear">
      <stop
         id="stop38"
         stop-color="#023E73" />
      <stop
         id="stop40"
         stop-color="#012840"
         offset="1" />
    </linearGradient>
    <linearGradient
       gradientUnits="userSpaceOnUse"
       y2="29.1667"
       x2="33.7005"
       y1="7.6461"
       x1="33.7005"
       id="paint1_linear"
       gradientTransform="translate(-5.1342361,-0.25094633)">
      <stop
         id="stop43"
         stop-color="#023E73" />
      <stop
         id="stop45"
         stop-color="#012840"
         offset="1" />
    </linearGradient>
    <linearGradient
       gradientUnits="userSpaceOnUse"
       y2="21.6471"
       x2="13.6564"
       y1="0"
       x1="13.6564"
       id="paint2_linear">
      <stop
         id="stop48"
         stop-color="#023E73" />
      <stop
         id="stop50"
         stop-color="#012840"
         offset="1" />
    </linearGradient>
    <linearGradient
       gradientUnits="userSpaceOnUse"
       y2="7.5195298"
       x2="15.859"
       y1="3.4179699"
       x1="15.859"
       id="paint3_linear">
      <stop
         id="stop53"
         stop-color="#023A6B" />
      <stop
         id="stop55"
         stop-color="#013661"
         offset="1" />
    </linearGradient>
    <linearGradient
       gradientUnits="userSpaceOnUse"
       y2="21.6471"
       x2="21.4757"
       y1="9.5703096"
       x1="21.4757"
       id="paint4_linear">
      <stop
         id="stop58"
         stop-color="#F2275D" />
      <stop
         id="stop60"
         stop-color="#BF0436"
         offset="1" />
    </linearGradient>
    <linearGradient
       gradientUnits="userSpaceOnUse"
       y2="7.5195298"
       x2="34.911999"
       y1="3.4179699"
       x1="34.911999"
       id="paint5_linear"
       gradientTransform="translate(-5.1342361,2.1800583e-4)">
      <stop
         id="stop63"
         stop-color="#023B6D" />
      <stop
         id="stop65"
         stop-color="#013661"
         offset="1" />
    </linearGradient>
    <linearGradient
       gradientUnits="userSpaceOnUse"
       y2="21.4193"
       x2="44.493401"
       y1="7.2916899"
       x1="44.493401"
       id="paint10_linear"
       gradientTransform="translate(-5.1342361)">
      <stop
         id="stop88"
         stop-color="#023B6C" />
      <stop
         id="stop90"
         stop-color="#012840"
         offset="1" />
    </linearGradient>
    <linearGradient
       inkscape:collect="always"
       xlink:href="#paint0_linear"
       id="linearGradient138"
       gradientUnits="userSpaceOnUse"
       x1="3.9647601"
       y1="0"
       x2="3.9647601"
       y2="21.6471" />
    <linearGradient
       inkscape:collect="always"
       xlink:href="#paint2_linear"
       id="linearGradient140"
       gradientUnits="userSpaceOnUse"
       x1="13.6564"
       y1="0"
       x2="13.6564"
       y2="21.6471" />
    <linearGradient
       inkscape:collect="always"
       xlink:href="#paint3_linear"
       id="linearGradient142"
       gradientUnits="userSpaceOnUse"
       x1="15.859"
       y1="3.4179699"
       x2="15.859"
       y2="7.5195298" />
    <linearGradient
       inkscape:collect="always"
       xlink:href="#paint4_linear"
       id="linearGradient144"
       gradientUnits="userSpaceOnUse"
       x1="21.4757"
       y1="9.5703096"
       x2="21.4757"
       y2="21.6471" />
    <linearGradient
       inkscape:collect="always"
       xlink:href="#paint0_linear"
       id="linearGradient146"
       gradientUnits="userSpaceOnUse"
       x1="3.9647601"
       y1="0"
       x2="3.9647601"
       y2="21.6471" />
    <linearGradient
       inkscape:collect="always"
       xlink:href="#paint2_linear"
       id="linearGradient148"
       gradientUnits="userSpaceOnUse"
       x1="13.6564"
       y1="0"
       x2="13.6564"
       y2="21.6471" />
    <linearGradient
       inkscape:collect="always"
       xlink:href="#paint3_linear"
       id="linearGradient150"
       gradientUnits="userSpaceOnUse"
       x1="15.859"
       y1="3.4179699"
       x2="15.859"
       y2="7.5195298" />
    <linearGradient
       inkscape:collect="always"
       xlink:href="#paint4_linear"
       id="linearGradient152"
       gradientUnits="userSpaceOnUse"
       x1="21.4757"
       y1="9.5703096"
       x2="21.4757"
       y2="21.6471" />
  </defs>
  <sodipodi:namedview
     id="base"
     pagecolor="#ffffff"
     bordercolor="#666666"
     borderopacity="1.0"
     inkscape:pageopacity="0.0"
     inkscape:pageshadow="2"
     inkscape:zoom="16"
     inkscape:cx="22.766097"
     inkscape:cy="9.5807383"
     inkscape:document-units="mm"
     inkscape:current-layer="g136"
     showgrid="false"
     inkscape:window-width="1920"
     inkscape:window-height="1043"
     inkscape:window-x="0"
     inkscape:window-y="0"
     inkscape:window-maximized="1" />
  <metadata
     id="metadata5">
    <rdf:RDF>
      <cc:Work
         rdf:about="">
        <dc:format>image/svg+xml</dc:format>
        <dc:type
           rdf:resource="http://purl.org/dc/dcmitype/StillImage" />
        <dc:title></dc:title>
      </cc:Work>
    </rdf:RDF>
  </metadata>
  <g
     inkscape:label="Layer 1"
     inkscape:groupmode="layer"
     id="layer1"
     transform="translate(-81.831836,-164.4784)">
    <g
       style="fill:none"
       id="g136"
       transform="matrix(0.26458333,0,0,0.26458333,81.831836,164.4784)">
      <path
         id="path10"
         d="M 6.73712e-5,17.0414 V 1 C 6.73712e-5,0.447715 0.447782,0 1.00007,0 h 3.2863 c 0.55228,0 1,0.447519 1,0.999803 V 16.1202 c 0,0.7369 0.58736,0.9212 0.88105,0.9212 h 0.7621 c 0.55228,0 1,0.4477 1,1 v 2.7698 c 0,0.3723 -0.22373,0.6743 -0.594,0.713 -0.60762,0.0634 -1.75396,0.1229 -3.81125,0.1229 -3.5856164,0 -3.5242026288,-3.224 -3.5242026288,-4.6057 z"
         inkscape:connector-curvature="0"
         style="fill:url(#linearGradient138)" />
      <path
         id="path12"
         d="m 32.530965,24.336854 v -13.7896 c 0,-0.5523005 -0.4477,-1.0000407 -1,-1.0000407 h -3.2863 c -0.5523,0 -1,0.4474402 -1,0.9997407 v 12.8741 c 0,0.7327 -0.5873,0.9158 -0.881,0.9158 h -0.7621 c -0.5523,0 -1,0.4477 -1,1 v 2.7426 c 0,0.3732 0.2245,0.6757 0.5957,0.7142 0.608,0.063 1.7541,0.122 3.8095,0.122 3.5856,0 3.5242,-3.2051 3.5242,-4.5788 z"
         inkscape:connector-curvature="0"
         style="fill:url(#paint1_linear)" />
      <path
         id="path14"
         d="M 9.69172,17.0414 V 1 c 0,-0.552285 0.44768,-1 0.99998,-1 h 3.2863 c 0.5523,0 1,0.447519 1,0.999803 V 16.1202 c 0,0.7369 0.5874,0.9212 0.8811,0.9212 h 0.7621 c 0.5523,0 1,0.4477 1,1 v 2.7698 c 0,0.3723 -0.2238,0.6743 -0.594,0.713 -0.6077,0.0634 -1.754,0.1229 -3.8113,0.1229 -3.5856,0 -3.52418,-3.224 -3.52418,-4.6057 z"
         inkscape:connector-curvature="0"
         style="fill:url(#linearGradient140)" />
      <path
         id="path16"
         d="M 24.1101,7.51953 H 7.60791 c -0.55228,0 -1,-0.44771 -1,-1 V 4.41797 c 0,-0.55229 0.44772,-1 1,-1 H 24.1101 c 0.5523,0 1,0.44771 1,1 v 2.10156 c 0,0.55229 -0.4477,1 -1,1 z"
         inkscape:connector-curvature="0"
         style="fill:url(#linearGradient142)" />
      <path
         id="path18"
         d="m 24.11,9.57031 h -5.2687 c -0.5523,0 -1,0.44769 -1,0.99999 v 2.0261 c 0,0.5474 0.4438,0.9912 0.9912,0.9912 0.5474,0 0.9912,0.4437 0.9912,0.9911 v 6.0684 c 0,0.5523 0.4477,1 1,1 H 24.11 c 0.5523,0 1,-0.4477 1,-1 V 10.5703 c 0,-0.5523 -0.4477,-0.99999 -1,-0.99999 z"
         inkscape:connector-curvature="0"
         style="fill:url(#linearGradient144)" />
      <rect
         id="rect20"
         rx="1"
         height="4.1015601"
         width="5.2863402"
         y="3.4179699"
         x="19.8237"
         style="fill:#f2275d" />
      <rect
         id="rect22"
         rx="1"
         height="4.1015601"
         width="5.5066099"
         y="3.4181881"
         x="27.024466"
         style="fill:url(#paint5_linear)" />
      <path
         style="fill:url(#linearGradient146)"
         id="path26"
         d="M 6.73712e-5,17.0414 V 1 C 6.73712e-5,0.447715 0.447782,0 1.00007,0 h 3.2863 c 0.55228,0 1,0.447519 1,0.999803 V 16.1202 c 0,0.7369 0.58736,0.9212 0.88105,0.9212 h 0.7621 c 0.55228,0 1,0.4477 1,1 v 2.7698 c 0,0.3723 -0.22373,0.6743 -0.594,0.713 -0.60762,0.0634 -1.75396,0.1229 -3.81125,0.1229 -3.5856164,0 -3.5242026288,-3.224 -3.5242026288,-4.6057 z"
         inkscape:connector-curvature="0" />
      <path
         style="fill:url(#linearGradient148)"
         id="path28"
         d="M 9.69172,17.0414 V 1 c 0,-0.552285 0.44768,-1 0.99998,-1 h 3.2863 c 0.5523,0 1,0.447519 1,0.999803 V 16.1202 c 0,0.7369 0.5874,0.9212 0.8811,0.9212 h 0.7621 c 0.5523,0 1,0.4477 1,1 v 2.7698 c 0,0.3723 -0.2238,0.6743 -0.594,0.713 -0.6077,0.0634 -1.754,0.1229 -3.8113,0.1229 -3.5856,0 -3.52418,-3.224 -3.52418,-4.6057 z"
         inkscape:connector-curvature="0" />
      <path
         style="fill:url(#linearGradient150)"
         id="path30"
         d="M 23.1101,7.51953 H 8.60791 c -1.10457,0 -2,-0.89543 -2,-2 V 5.41797 c 0,-1.10457 0.89543,-2 2,-2 H 23.1101 c 1.1046,0 2,0.89543 2,2 v 0.10156 c 0,1.10457 -0.8954,2 -2,2 z"
         inkscape:connector-curvature="0" />
      <path
         style="fill:url(#linearGradient152)"
         id="path32"
         d="m 24.11,9.57031 h -5.2687 c -0.5523,0 -1,0.44769 -1,0.99999 v 2.0261 c 0,0.5474 0.4438,0.9912 0.9912,0.9912 0.5474,0 0.9912,0.4437 0.9912,0.9911 v 6.0684 c 0,0.5523 0.4477,1 1,1 H 24.11 c 0.5523,0 1,-0.4477 1,-1 V 10.5703 c 0,-0.5523 -0.4477,-0.99999 -1,-0.99999 z"
         inkscape:connector-curvature="0" />
      <path
         id="path34"
         d="m 19.8237,3.55028 c 0,-0.07307 0.0593,-0.13231 0.1323,-0.13231 h 3.9822 c 0.6472,0 1.1719,0.52467 1.1719,1.17187 v 2.1745 c 0,0.41708 -0.3381,0.75519 -0.7552,0.75519 H 23.793 c -2.1922,0 -3.9693,-1.77709 -3.9693,-3.96925 z"
         inkscape:connector-curvature="0"
         style="fill:#f2275d" />
      <path
         id="path36"
         d="m 37.115165,7.29169 h 5.9657 c 0.5523,0 1,0.44771 1,1 v 1.34485 c 0,0.55226 -0.4477,0.99996 -1,0.99996 h -5.1214 c -0.9368,0 -0.8443,1.9805 0,1.9805 h 4.5303 c 3.3519,0 2.9788,8.8023 0,8.8023 h -7.1473 c -0.5523,0 -1,-0.4477 -1,-1 v -1.4329 c 0,-0.5523 0.4472,-1 0.9995,-1 h 5.1874 c 0.9367,0 0.9028,-2.2702 0,-2.2702 h -3.4142 c -4.468,0 -4.2306,-8.42451 0,-8.42451 z"
         inkscape:connector-curvature="0"
         style="fill:url(#paint10_linear)" />
      <rect
         id="rect154"
         width="16.882174"
         height="38.448933"
         x="30.390741"
         y="0.50260925"
         rx="1" />
    </g>
  </g>
</svg>
