<svg width="480" height="auto" viewBox="0 0 3889 1169" fill="none" xmlns="http://www.w3.org/2000/svg">
<path d="M3152.89 960.667C3340.85 974.556 3489 981.5 3597.33 981.5C3611.22 981.5 3622.8 976.87 3632.06 967.611C3641.31 958.352 3645.94 946.778 3645.94 932.889V884.278H3347.33C3284.37 884.278 3233.91 865.296 3195.94 827.333C3157.98 789.37 3139 738.907 3139 675.944V627.333C3139 564.37 3157.98 513.907 3195.94 475.944C3233.91 437.981 3284.37 419 3347.33 419H3819.56V599.556H3430.67C3416.78 599.556 3405.2 604.185 3395.94 613.444C3386.69 622.704 3382.06 634.278 3382.06 648.167C3382.06 662.056 3386.69 673.63 3395.94 682.889C3405.2 692.148 3416.78 696.778 3430.67 696.778H3680.67C3743.63 696.778 3794.09 715.759 3832.06 753.722C3870.02 791.685 3889 842.148 3889 905.111V960.667C3889 1023.63 3870.02 1074.09 3832.06 1112.06C3794.09 1150.02 3743.63 1169 3680.67 1169C3516.78 1169 3340.85 1159.74 3152.89 1141.22V960.667Z" fill="url(#paint0_linear)"/>
<path d="M1821.12 975.8C1869.86 975.8 1925.03 966.6 1986.63 948.2V865.4H1786.64C1772.85 865.4 1761.36 870 1752.16 879.2C1742.97 888.4 1738.37 899.9 1738.37 913.7V927.5C1738.37 941.3 1742.97 952.8 1752.16 962C1761.36 971.2 1772.85 975.8 1786.64 975.8H1821.12ZM1565.96 437.6C1734.23 419.2 1885.95 410 2021.11 410C2083.64 410 2133.75 428.86 2171.45 466.58C2209.15 504.3 2228 554.44 2228 617V1155.2H2014.22L2000.42 1086.2C1957.21 1114.72 1912.61 1135.88 1866.64 1149.68C1821.58 1162.56 1783.42 1169 1752.16 1169H1703.89C1641.36 1169 1591.25 1150.14 1553.55 1112.42C1515.85 1074.7 1497 1024.56 1497 962V899.9C1497 837.34 1515.85 787.2 1553.55 749.48C1591.25 711.76 1641.36 692.9 1703.89 692.9H1986.63V637.7C1986.63 623.9 1982.03 612.4 1972.84 603.2C1963.64 594 1952.15 589.4 1938.36 589.4C1878.59 589.4 1812.39 592.16 1739.75 597.68C1668.03 603.2 1610.1 607.34 1565.96 610.1V437.6Z" fill="url(#paint1_linear)"/>
<path d="M2642.12 974.8C2690.86 974.8 2746.03 965.6 2807.63 947.2V864.4H2607.64C2593.85 864.4 2582.36 869 2573.16 878.2C2563.97 887.4 2559.37 898.9 2559.37 912.7V926.5C2559.37 940.3 2563.97 951.8 2573.16 961C2582.36 970.2 2593.85 974.8 2607.64 974.8H2642.12ZM2386.96 436.6C2555.23 418.2 2706.95 409 2842.11 409C2904.64 409 2954.75 427.86 2992.45 465.58C3030.15 503.3 3049 553.44 3049 616V1154.2H2835.22L2821.42 1085.2C2778.21 1113.72 2733.61 1134.88 2687.64 1148.68C2642.58 1161.56 2604.42 1168 2573.16 1168H2524.89C2462.36 1168 2412.25 1149.14 2374.55 1111.42C2336.85 1073.7 2318 1023.56 2318 961V898.9C2318 836.34 2336.85 786.2 2374.55 748.48C2412.25 710.76 2462.36 691.9 2524.89 691.9H2807.63V636.7C2807.63 622.9 2803.03 611.4 2793.84 602.2C2784.64 593 2773.15 588.4 2759.36 588.4C2699.59 588.4 2633.39 591.16 2560.75 596.68C2489.03 602.2 2431.1 606.34 2386.96 609.1V436.6Z" fill="url(#paint2_linear)"/>
<path d="M0.00381482 919.489V50C0.00381482 22.3858 22.3896 0 50.0038 0H249.335C276.949 0 299.335 22.2917 299.335 49.906V869.787C299.335 909.549 332.594 919.489 349.223 919.489H399C426.614 919.489 449 941.875 449 969.489V1124.62C449 1143.59 437.529 1159.03 418.669 1161.03C385.182 1164.57 319.889 1168 199.558 1168C-3.47367 1168 0.00381482 994.043 0.00381482 919.489Z" fill="url(#paint3_linear)"/>
<path d="M539.004 919.489V50C539.004 22.3858 561.39 0 589.004 0H789.668C817.282 0 839.668 22.2917 839.668 49.906V869.787C839.668 909.549 873.075 919.489 889.779 919.489H940C967.614 919.489 990 941.875 990 969.489V1124.56C990 1143.56 978.497 1159.02 959.605 1161.02C925.99 1164.57 860.399 1168 739.447 1168C535.511 1168 539.004 994.043 539.004 919.489Z" fill="url(#paint4_linear)"/>
<path d="M1357 410H418C390.386 410 368 387.614 368 360V235C368 207.386 390.386 185 418 185H1357C1384.61 185 1407 207.386 1407 235V360C1407 387.614 1384.61 410 1357 410Z" fill="url(#paint5_linear)"/>
<path d="M1357 522H1043C1015.39 522 993 544.386 993 572V686.886C993 714.5 1015.39 736.886 1043 736.886H1055.91C1083.52 736.886 1105.91 759.271 1105.91 786.886V1118C1105.91 1145.61 1128.29 1168 1155.91 1168H1357C1384.61 1168 1407 1145.61 1407 1118V572C1407 544.386 1384.61 522 1357 522Z" fill="url(#paint6_linear)"/>
<path d="M1110 185H1357C1384.61 185 1407 207.386 1407 235V360C1407 387.614 1384.61 410 1357 410H1310C1199.54 410 1110 320.457 1110 210V185Z" fill="#F2275D"/>
<defs>
<linearGradient id="paint0_linear" x1="3514" y1="419" x2="3514" y2="1169" gradientUnits="userSpaceOnUse">
<stop stop-color="#023E73"/>
<stop offset="1" stop-color="#012840"/>
</linearGradient>
<linearGradient id="paint1_linear" x1="1862.5" y1="410" x2="1862.5" y2="1169" gradientUnits="userSpaceOnUse">
<stop stop-color="#023E73"/>
<stop offset="1" stop-color="#012840"/>
</linearGradient>
<linearGradient id="paint2_linear" x1="2683.5" y1="409" x2="2683.5" y2="1168" gradientUnits="userSpaceOnUse">
<stop stop-color="#023E73"/>
<stop offset="1" stop-color="#012840"/>
</linearGradient>
<linearGradient id="paint3_linear" x1="224.5" y1="0" x2="224.5" y2="1168" gradientUnits="userSpaceOnUse">
<stop stop-color="#023E73"/>
<stop offset="1" stop-color="#012840"/>
</linearGradient>
<linearGradient id="paint4_linear" x1="764.5" y1="0" x2="764.5" y2="1168" gradientUnits="userSpaceOnUse">
<stop stop-color="#023E73"/>
<stop offset="1" stop-color="#012840"/>
</linearGradient>
<linearGradient id="paint5_linear" x1="887.5" y1="185" x2="887.5" y2="410" gradientUnits="userSpaceOnUse">
<stop stop-color="#023A6B"/>
<stop offset="1" stop-color="#013661"/>
</linearGradient>
<linearGradient id="paint6_linear" x1="1200" y1="522" x2="1200" y2="1168" gradientUnits="userSpaceOnUse">
<stop stop-color="#F2275D"/>
<stop offset="1" stop-color="#BF0436"/>
</linearGradient>
</defs>
</svg>
